<?xml version="1.0" encoding="UTF-8"?>
<svg xmlns="http://www.w3.org/2000/svg" width="49.655" height="58.978" viewBox="0 0 49.655 58.978">
  <g transform="translate(-34.22 -27.5)">
    <path d="M47.2,52.2h-3.16a4.274,4.274,0,0,0-4.5,4V68.183a4.274,4.274,0,0,0,4.5,4H47.2V52.208Z" transform="translate(-0.78 -4.086)" fill="none" stroke="#00bc98" stroke-linecap="round" stroke-linejoin="round" stroke-width="1.5"></path>
    <path d="M79.4,72.17h3.16a4.274,4.274,0,0,0,4.5-4V56.188a4.274,4.274,0,0,0-4.5-4H79.4V72.162Z" transform="translate(-7.58 -4.084)" fill="none" stroke="#00bc98" stroke-linecap="round" stroke-linejoin="round" stroke-width="1.5"></path>
    <path d="M69.233,83.812h.929A12.966,12.966,0,0,0,83.125,70.848V52.328A24.081,24.081,0,0,0,59.048,28.25h0A24.081,24.081,0,0,0,34.97,52.328v5.781" fill="none" stroke="#fff" stroke-linecap="round" stroke-linejoin="round" stroke-width="1.5"></path>
    <path d="M60.8,92.93h8.883v3.832H60.8a1.917,1.917,0,0,1-1.916-1.916h0A1.917,1.917,0,0,1,60.8,92.93Z" transform="translate(-4.079 -11.034)" fill="none" stroke="#00bc98" stroke-linecap="round" stroke-linejoin="round" stroke-width="1.5"></path>
  </g>
</svg>
