<svg xmlns="http://www.w3.org/2000/svg" width="936" height="678" viewBox="0 0 936 678">
  <g fill="#343741" transform="translate(-121 -377)">
    <path d="M562.614983 846.928407L278.424324 16.4372344C276.466735 10.4532527 273.317573 9 269.572623 9L7.76655242 9C1.89378948 9-1.08514827 14.8984962.361764348 19.4292252L347.365454 1047.56277C349.323043 1053.46126 353.238218 1055 356.812942 1055L475.119327 1055C478.26849 1055 481.928328 1053.71772 483.545464 1048.93053L562.359646 852.826904C563.21077 850.433311 563.125659 848.552631 562.614983 846.928407zM1056.61498 846.996894L772.424323 16.4378423C770.466737 10.4533715 767.317574 9 763.572622 9L501.766553 9C495.893789 9 492.914851 14.8989784 494.361765 19.4300776L841.365453 1047.56216C843.323042 1053.46114 847.238216 1055 850.812941 1055L969.119326 1055C972.268489 1055 975.928327 1053.71762 977.545465 1048.93004L1056.35965 852.810382C1057.21077 850.502085 1057.12566 848.621251 1056.61498 846.996894z"/>
  </g>
</svg>
