<?xml version="1.0" standalone="no"?>
<!DOCTYPE svg PUBLIC "-//W3C//DTD SVG 20010904//EN"
 "http://www.w3.org/TR/2001/REC-SVG-20010904/DTD/svg10.dtd">
<svg version="1.0" xmlns="http://www.w3.org/2000/svg"
 width="800.000000pt" height="800.000000pt" viewBox="0 0 800.000000 800.000000"
 preserveAspectRatio="xMidYMid meet">
<metadata>
Created by potrace 1.11, written by Peter Selinger 2001-2013
</metadata>
<g transform="translate(0.000000,800.000000) scale(0.100000,-0.100000)"
fill="#000000" stroke="none">
<path d="M6957 7163 c-3 -3 -21 -7 -40 -8 -65 -7 -277 -88 -277 -107 0 -4 -4
-7 -9 -5 -30 8 -291 -234 -291 -270 0 -3 -6 -14 -14 -22 -43 -48 -120 -246
-133 -344 -15 -100 -6 -276 16 -362 12 -44 28 -93 35 -110 8 -16 21 -46 29
-66 8 -20 35 -67 60 -105 108 -163 282 -299 457 -359 3 -1 12 -4 20 -8 57 -22
176 -39 280 -40 108 -1 176 9 293 45 37 11 67 24 67 30 0 5 4 7 9 3 5 -3 12
-1 16 5 4 6 11 8 16 5 5 -4 9 -1 9 4 0 6 5 11 11 11 42 0 243 171 316 268 64
85 143 270 160 374 9 55 9 261 1 313 -6 35 -29 120 -44 165 -3 8 -5 16 -4 18
2 6 -86 161 -109 192 -44 59 -54 71 -106 122 -118 119 -278 203 -460 244 -37
8 -301 14 -308 7z m223 -407 c14 -3 36 -8 48 -11 60 -11 153 -66 214 -126 209
-206 200 -537 -19 -732 -67 -61 -176 -111 -262 -122 -22 -2 -44 -5 -48 -6 -4
-1 -10 -1 -13 0 -3 1 -30 4 -60 6 -160 11 -325 125 -398 275 -40 83 -45 106
-46 215 -1 96 5 139 23 174 7 11 9 21 7 21 -7 0 40 84 62 113 45 56 120 120
176 147 98 49 228 67 316 46z"/>
<path d="M19 7102 c-25 -18 -25 -25 18 -155 20 -61 38 -114 38 -117 1 -3 5
-14 9 -25 4 -11 12 -31 16 -45 4 -14 11 -34 16 -45 4 -11 8 -24 10 -30 1 -5
28 -84 59 -175 31 -91 58 -172 60 -180 2 -8 49 -145 103 -305 55 -159 121
-353 146 -430 26 -77 50 -147 53 -155 4 -8 7 -17 8 -20 17 -57 151 -454 162
-480 5 -14 9 -26 16 -55 1 -5 5 -14 8 -20 4 -5 23 -62 44 -125 21 -63 40 -119
44 -125 3 -5 6 -16 7 -22 3 -15 152 -460 164 -488 5 -11 16 -42 24 -70 7 -27
20 -63 27 -80 6 -16 13 -35 14 -40 3 -12 63 -192 72 -215 3 -8 7 -19 9 -25 1
-5 71 -210 154 -455 83 -245 163 -481 177 -525 14 -44 29 -84 33 -90 5 -5 9
-14 9 -20 1 -11 19 -70 28 -95 3 -8 7 -19 9 -25 1 -5 19 -57 39 -115 20 -58
38 -109 39 -115 2 -5 6 -17 9 -25 3 -8 37 -112 77 -230 39 -118 75 -224 80
-235 4 -11 36 -103 70 -205 33 -102 65 -194 70 -205 4 -11 11 -29 13 -40 15
-61 150 -442 161 -453 10 -10 93 -13 382 -13 426 0 386 -1 402 9 10 7 155 344
166 387 4 15 16 43 42 103 13 29 24 54 24 57 0 2 5 16 12 32 6 15 12 30 13 33
3 8 52 129 78 190 6 14 11 27 11 30 4 18 131 327 139 337 5 7 6 13 2 13 -4 0
-3 6 3 13 6 7 9 24 7 37 -3 19 -66 207 -118 350 -42 119 -56 160 -51 160 4 0
2 6 -3 13 -6 6 -13 21 -16 32 -3 11 -35 106 -72 210 -36 105 -68 197 -70 205
-1 8 -10 33 -18 55 -8 22 -18 49 -23 60 -4 11 -8 26 -10 33 -1 8 -6 21 -10 30
-4 9 -8 22 -9 27 -2 6 -4 17 -6 25 -2 8 -6 17 -9 20 -3 3 -17 41 -30 85 -13
44 -28 83 -33 86 -5 3 -8 9 -7 13 2 9 -58 192 -76 233 -8 17 -14 38 -14 46 0
9 -5 19 -10 22 -6 4 -8 11 -4 16 3 5 1 15 -4 22 -8 11 -30 70 -36 100 -2 7 -8
26 -15 42 -7 17 -32 89 -56 160 -24 72 -69 202 -100 290 -31 88 -57 165 -59
170 -5 23 -48 151 -57 170 -8 18 -76 214 -83 240 -2 6 -8 22 -14 38 -7 15 -14
38 -16 50 -3 12 -23 74 -46 137 -23 63 -44 124 -47 135 -3 11 -8 29 -13 40 -4
11 -13 36 -20 55 -7 19 -16 44 -20 55 -5 11 -11 29 -13 40 -3 11 -14 44 -25
73 -11 29 -21 55 -22 57 -3 15 -75 229 -135 400 -31 88 -61 176 -67 195 -5 19
-15 41 -20 48 -6 6 -8 12 -5 12 5 0 -71 227 -102 303 -6 16 -11 37 -11 47 0
10 -4 21 -9 24 -5 3 -12 18 -16 33 -6 26 -78 239 -111 330 -10 26 -24 45 -37
49 -12 4 -379 8 -816 8 -638 1 -797 -2 -812 -12z"/>
<path d="M3022 7109 c-63 -13 -63 -22 -2 -194 18 -49 33 -94 35 -100 1 -5 5
-17 8 -25 3 -8 25 -71 47 -140 23 -69 44 -132 47 -140 3 -8 7 -19 9 -25 1 -5
19 -57 39 -115 20 -58 38 -109 39 -115 2 -5 6 -17 9 -25 11 -28 193 -565 201
-595 2 -5 6 -17 9 -25 3 -8 24 -69 46 -135 22 -66 72 -214 111 -330 40 -115
73 -214 74 -220 4 -12 15 -43 26 -70 5 -11 11 -29 13 -40 3 -11 64 -193 136
-405 73 -212 163 -479 202 -595 39 -115 73 -217 76 -225 3 -8 7 -19 9 -25 1
-5 69 -203 149 -440 81 -236 160 -470 176 -520 17 -49 34 -99 38 -110 5 -11
28 -76 50 -145 23 -69 71 -210 107 -315 36 -104 66 -194 68 -200 1 -5 15 -48
31 -95 16 -47 30 -87 30 -90 1 -3 7 -17 13 -33 7 -15 14 -38 16 -50 2 -12 10
-35 17 -52 6 -16 13 -36 15 -42 2 -11 22 -68 42 -123 3 -8 6 -18 6 -22 1 -3 4
-10 9 -14 4 -4 7 -17 7 -29 0 -12 3 -25 7 -29 4 -3 8 -12 9 -19 2 -7 31 -96
66 -199 41 -120 70 -190 81 -198 29 -18 765 -16 783 2 7 7 63 139 124 293 62
154 118 294 125 310 7 17 41 100 75 185 34 85 71 174 81 197 10 24 19 50 19
58 0 8 4 15 10 15 5 0 9 3 8 8 -1 4 4 21 11 37 7 17 14 38 16 47 2 9 9 26 15
37 8 16 9 76 1 76 -1 0 -67 186 -75 210 -2 6 -6 17 -9 25 -3 8 -17 51 -32 95
-14 44 -29 87 -32 95 -3 8 -7 17 -8 20 -18 59 -38 119 -59 175 -15 39 -26 70
-26 70 1 0 -1 7 -4 15 -37 106 -103 301 -122 360 -13 41 -28 84 -33 95 -5 11
-34 94 -65 185 -30 91 -83 244 -116 340 -50 143 -85 246 -95 280 -1 3 -4 12
-8 20 -3 8 -15 44 -27 80 -12 36 -25 74 -30 85 -10 26 -55 158 -59 177 -1 4
-9 27 -17 50 -28 78 -185 533 -189 548 -3 8 -27 80 -55 160 -28 80 -69 197
-90 260 -95 278 -122 356 -130 375 -4 11 -11 29 -13 40 -3 11 -15 47 -27 80
-26 75 -29 83 -31 93 -1 4 -19 57 -41 117 -22 61 -52 148 -68 195 -16 47 -65
191 -110 320 -45 129 -83 240 -84 245 -2 6 -8 23 -14 38 -7 16 -12 32 -12 37
0 5 -5 21 -12 37 -6 15 -12 34 -14 42 -9 46 17 45 -818 45 -432 1 -798 -2
-814 -5z"/>
</g>
</svg>
